<?xml version="1.0" encoding="utf-8"?>
<!-- Generator: Adobe Illustrator 16.2.0, SVG Export Plug-In . SVG Version: 6.00 Build 0)  -->
<!DOCTYPE svg PUBLIC "-//W3C//DTD SVG 1.1//EN" "http://www.w3.org/Graphics/SVG/1.1/DTD/svg11.dtd">
<svg id="svg" version="1.1" xmlns="http://www.w3.org/2000/svg" xmlns:xlink="http://www.w3.org/1999/xlink" width="400" height="85.66433566433567" viewBox="0, 0, 400,85.66433566433567"><g id="svgg"><path id="path0" d="M283.444 11.778 C 283.383 11.839,283.333 24.439,283.333 39.778 L 283.333 67.667 292.213 67.667 C 297.370 67.667,301.672 67.594,302.476 67.493 C 305.377 67.129,309.129 65.555,310.292 64.214 C 310.498 63.976,310.667 63.831,310.667 63.891 C 310.667 64.026,311.609 62.958,312.188 62.167 C 312.667 61.511,313.655 59.346,314.052 58.081 C 314.818 55.639,314.912 54.835,314.910 50.750 L 314.908 47.250 314.202 45.130 C 312.834 41.028,310.944 38.927,307.769 37.981 L 306.622 37.639 308.099 36.904 C 310.890 35.515,312.616 33.107,313.011 30.051 C 313.115 29.244,313.268 28.453,313.350 28.294 C 313.548 27.911,313.542 25.511,313.339 24.343 C 313.251 23.834,313.100 22.817,313.003 22.083 C 312.838 20.828,312.077 18.483,311.795 18.361 C 311.724 18.331,311.667 18.173,311.667 18.012 C 311.667 17.850,311.518 17.584,311.337 17.420 C 311.156 17.256,311.043 17.065,311.086 16.995 C 311.232 16.760,308.405 14.251,307.377 13.704 C 305.321 12.607,303.083 12.095,299.253 11.842 C 296.342 11.650,283.624 11.599,283.444 11.778 M349.417 15.595 C 349.309 15.641,349.266 17.779,349.296 21.661 L 349.341 27.655 347.546 27.703 L 345.750 27.750 345.750 31.500 L 345.750 35.250 347.546 35.297 L 349.343 35.345 349.333 47.464 C 349.328 54.130,349.369 59.771,349.426 60.000 C 349.482 60.229,349.591 60.718,349.668 61.086 C 350.888 66.899,355.048 68.856,364.000 67.829 C 366.372 67.557,366.167 68.033,366.167 62.792 L 366.167 58.292 365.625 58.406 C 362.898 58.984,360.777 58.414,360.350 56.989 C 360.225 56.573,360.167 53.013,360.167 45.856 L 360.167 35.333 362.750 35.333 L 365.333 35.333 365.333 31.500 L 365.333 27.667 362.752 27.667 L 360.171 27.667 360.127 21.625 L 360.083 15.583 354.833 15.554 C 351.946 15.537,349.508 15.556,349.417 15.595 M299.167 20.570 C 301.040 21.154,302.667 22.859,302.667 24.241 C 302.667 24.383,302.730 24.500,302.807 24.500 C 302.883 24.500,302.933 24.733,302.916 25.018 C 302.899 25.303,302.943 25.847,303.015 26.227 C 303.211 27.262,302.736 30.395,302.228 31.417 C 301.323 33.240,300.150 33.824,297.125 33.959 L 295.167 34.046 295.167 27.190 L 295.167 20.333 296.792 20.335 C 297.712 20.336,298.742 20.438,299.167 20.570 M379.929 27.185 C 374.051 28.042,370.473 32.141,369.837 38.750 C 369.523 42.002,369.779 58.269,370.154 58.981 C 370.232 59.129,370.384 59.677,370.491 60.198 C 370.598 60.720,370.818 61.320,370.980 61.532 C 371.141 61.743,371.553 62.423,371.895 63.042 C 375.730 69.983,389.888 70.120,393.373 63.250 C 393.559 62.883,393.766 62.546,393.834 62.500 C 393.951 62.420,394.556 60.595,394.581 60.250 C 394.587 60.158,394.665 59.971,394.754 59.833 C 394.844 59.696,394.943 57.915,394.975 55.875 L 395.033 52.167 390.058 52.167 L 385.083 52.167 385.083 54.792 C 385.083 58.024,384.992 58.486,384.185 59.334 C 383.379 60.182,382.247 60.284,381.432 59.583 C 381.166 59.354,381.009 59.167,381.083 59.167 C 381.158 59.167,381.075 59.009,380.901 58.816 C 380.606 58.491,380.580 58.107,380.531 53.485 L 380.478 48.504 387.697 48.460 L 394.917 48.417 394.903 42.750 C 394.887 36.118,394.917 36.583,394.404 35.023 C 394.182 34.348,394.000 33.723,394.000 33.635 C 394.000 32.749,391.258 29.458,389.816 28.613 C 387.486 27.248,383.471 26.668,379.929 27.185 M316.911 27.983 C 316.999 28.259,317.779 31.267,317.888 31.750 C 317.909 31.842,317.973 31.992,318.029 32.083 C 318.086 32.175,318.258 32.922,318.412 33.744 C 318.565 34.565,318.742 35.315,318.804 35.410 C 318.866 35.505,319.084 36.333,319.289 37.250 C 319.494 38.167,319.699 39.029,319.743 39.167 C 319.849 39.492,320.666 42.626,320.786 43.167 C 320.836 43.396,320.936 43.658,321.007 43.750 C 321.077 43.842,321.267 44.592,321.429 45.417 C 321.590 46.242,321.772 46.954,321.833 47.000 C 321.894 47.046,322.111 47.871,322.315 48.833 C 322.719 50.735,322.735 50.797,322.884 51.167 C 322.940 51.304,323.104 51.979,323.250 52.667 C 323.524 53.964,323.555 54.084,323.710 54.500 C 323.894 54.994,324.369 56.924,324.393 57.276 C 324.406 57.473,324.473 57.600,324.542 57.558 C 324.610 57.515,324.667 57.747,324.667 58.073 C 324.667 58.400,324.730 58.667,324.807 58.667 C 324.884 58.667,325.045 59.210,325.166 59.875 C 325.286 60.540,325.442 61.149,325.513 61.229 C 325.583 61.309,325.598 61.485,325.546 61.620 C 325.494 61.756,325.526 61.916,325.617 61.975 C 326.087 62.281,326.970 68.123,326.667 68.917 C 326.562 69.192,326.463 69.453,326.447 69.498 C 326.133 70.349,324.646 70.951,322.417 71.130 L 320.917 71.250 320.917 75.167 L 320.917 79.083 323.750 79.083 C 327.567 79.083,329.619 78.512,331.865 76.825 C 332.343 76.466,332.775 76.152,332.825 76.128 C 333.343 75.877,335.331 72.597,335.333 71.992 C 335.333 71.850,335.399 71.662,335.480 71.575 C 335.692 71.345,336.314 69.217,336.438 68.292 C 336.497 67.856,336.599 67.500,336.664 67.500 C 336.729 67.500,336.769 67.294,336.754 67.042 C 336.738 66.790,336.774 66.546,336.834 66.500 C 336.893 66.454,337.074 65.667,337.234 64.750 C 337.616 62.571,337.605 62.623,337.716 62.333 C 337.769 62.196,337.934 61.296,338.083 60.333 C 338.233 59.371,338.399 58.471,338.453 58.333 C 338.605 57.943,338.624 57.852,338.913 56.083 C 339.063 55.167,339.251 54.294,339.331 54.145 C 339.412 53.995,339.527 53.547,339.586 53.148 C 339.646 52.750,339.736 52.356,339.787 52.274 C 339.838 52.191,340.014 51.402,340.179 50.520 C 340.344 49.638,340.552 48.579,340.641 48.167 C 340.731 47.754,340.849 47.124,340.905 46.767 C 341.033 45.947,341.088 45.676,341.416 44.291 C 341.563 43.671,341.825 42.359,341.999 41.374 C 342.272 39.824,342.738 37.555,343.067 36.167 C 343.121 35.938,343.213 35.487,343.271 35.167 C 343.329 34.846,343.421 34.508,343.475 34.417 C 343.570 34.256,343.636 33.887,343.732 32.987 C 343.757 32.751,343.821 32.489,343.873 32.404 C 343.925 32.319,344.018 31.875,344.080 31.417 C 344.141 30.958,344.235 30.471,344.288 30.333 C 344.409 30.017,344.477 29.712,344.565 29.083 C 344.604 28.808,344.688 28.376,344.753 28.123 L 344.871 27.662 339.727 27.706 L 334.583 27.750 334.533 28.542 C 334.505 28.977,334.424 29.333,334.355 29.333 C 334.285 29.333,334.220 29.540,334.212 29.792 C 334.196 30.267,333.536 35.162,333.409 35.750 C 333.369 35.933,333.155 37.396,332.932 39.000 C 332.710 40.604,332.492 42.067,332.447 42.250 C 332.402 42.433,332.317 42.996,332.257 43.500 C 332.197 44.004,332.076 44.754,331.987 45.167 C 331.898 45.579,331.791 46.217,331.749 46.583 C 331.515 48.607,331.444 49.000,331.312 49.000 C 331.232 49.000,331.165 48.794,331.164 48.542 C 331.163 48.290,331.048 47.633,330.910 47.083 C 330.772 46.533,330.476 45.108,330.252 43.917 C 330.029 42.725,329.689 40.962,329.498 40.000 C 329.307 39.037,329.125 38.091,329.092 37.896 C 329.060 37.701,328.965 37.401,328.881 37.229 C 328.797 37.057,328.737 36.804,328.748 36.667 C 328.758 36.529,328.704 36.192,328.627 35.917 C 328.420 35.183,327.481 30.349,327.106 28.083 C 327.052 27.760,326.903 27.749,321.930 27.706 C 316.939 27.663,316.812 27.670,316.911 27.983 M384.028 35.613 C 384.722 35.827,385.064 37.248,385.134 40.208 L 385.199 43.000 382.849 43.000 L 380.500 43.000 380.500 40.508 C 380.500 36.784,380.908 35.603,382.290 35.324 C 382.699 35.241,382.967 35.286,384.028 35.613 M299.855 42.769 C 300.743 43.019,302.694 44.459,302.540 44.752 C 302.516 44.798,302.616 45.116,302.762 45.459 C 303.069 46.182,303.172 46.541,303.287 47.292 C 303.332 47.590,303.437 47.833,303.518 47.833 C 303.727 47.833,303.709 52.954,303.500 53.083 C 303.408 53.140,303.333 53.477,303.333 53.833 C 303.333 54.189,303.268 54.521,303.188 54.570 C 303.108 54.619,302.998 54.884,302.943 55.158 C 302.497 57.391,300.329 58.661,296.958 58.665 L 295.167 58.667 295.167 50.475 L 295.167 42.282 297.021 42.389 C 298.041 42.447,299.316 42.618,299.855 42.769 " stroke="none" fill="#ec1c24" fill-rule="evenodd"></path><path id="path1" d="M23.500 7.553 C 22.825 7.905,22.109 8.372,21.728 8.708 C 21.533 8.880,21.142 9.147,20.858 9.302 C 19.395 10.101,13.988 15.333,12.691 17.204 C 12.547 17.413,12.294 17.729,12.131 17.906 C 11.967 18.084,11.833 18.290,11.833 18.363 C 11.833 18.473,11.110 19.520,10.528 20.252 C 10.105 20.784,9.115 22.456,8.892 23.014 C 8.748 23.373,8.564 23.667,8.482 23.667 C 8.400 23.667,8.333 23.736,8.333 23.822 C 8.333 23.973,7.782 25.230,6.829 27.250 C 6.570 27.800,6.234 28.662,6.083 29.167 C 5.933 29.671,5.705 30.323,5.578 30.616 C 5.451 30.909,5.228 31.772,5.083 32.533 C 4.937 33.294,4.750 34.043,4.665 34.196 C 4.581 34.350,4.400 35.400,4.262 36.530 C 4.125 37.659,3.965 38.921,3.908 39.333 C 3.737 40.546,3.780 46.450,3.971 48.137 C 4.233 50.448,4.513 52.187,4.671 52.485 C 4.748 52.631,4.898 53.237,5.005 53.833 C 5.358 55.806,6.267 58.314,7.762 61.445 C 8.076 62.103,8.333 62.715,8.333 62.806 C 8.333 62.898,8.390 62.997,8.458 63.028 C 8.527 63.058,8.793 63.496,9.049 64.000 C 9.720 65.321,9.910 65.633,10.352 66.135 C 10.569 66.382,10.888 66.846,11.061 67.167 C 11.234 67.487,11.422 67.787,11.479 67.833 C 11.626 67.951,12.541 69.168,12.858 69.667 C 13.113 70.069,15.045 72.182,16.417 73.559 C 17.419 74.566,20.275 76.960,21.059 77.451 C 21.439 77.689,21.787 77.939,21.833 78.007 C 22.376 78.811,29.321 82.350,32.250 83.315 C 40.116 85.905,47.870 86.173,57.350 84.181 C 60.530 83.512,67.716 80.255,70.239 78.338 C 70.966 77.785,71.620 77.333,71.693 77.333 C 72.758 77.333,80.505 69.253,81.742 66.850 C 81.903 66.539,82.215 66.103,82.437 65.881 C 82.824 65.494,82.840 65.167,82.472 65.167 C 82.375 65.167,81.566 65.903,80.673 66.803 C 79.780 67.702,78.570 68.802,77.983 69.245 C 77.397 69.689,76.893 70.113,76.863 70.186 C 76.800 70.346,74.844 71.679,73.333 72.593 C 71.464 73.723,71.257 73.840,70.958 73.941 C 70.798 73.995,70.667 74.105,70.667 74.186 C 70.667 74.267,70.600 74.333,70.519 74.333 C 70.438 74.333,69.669 74.662,68.811 75.063 C 67.232 75.801,63.251 77.181,61.786 77.498 C 61.348 77.593,60.861 77.743,60.703 77.831 C 58.405 79.123,46.135 79.074,42.250 77.757 C 41.883 77.633,40.983 77.366,40.250 77.165 C 32.739 75.106,25.562 70.491,20.376 64.387 C 18.504 62.185,15.167 57.152,15.167 56.532 C 15.167 56.459,14.956 56.065,14.698 55.658 C 14.440 55.250,14.084 54.504,13.907 54.000 C 13.731 53.496,13.534 53.045,13.471 52.997 C 13.408 52.950,13.224 52.425,13.061 51.831 C 12.899 51.236,12.716 50.712,12.655 50.667 C 12.593 50.621,12.379 49.833,12.177 48.917 C 11.976 48.000,11.741 47.063,11.656 46.833 C 11.476 46.352,11.013 43.500,10.904 42.196 C 10.863 41.709,10.757 40.996,10.669 40.613 C 10.428 39.569,10.473 36.435,10.752 34.858 C 10.888 34.092,10.960 33.404,10.914 33.329 C 10.867 33.253,10.897 33.017,10.981 32.804 C 11.064 32.591,11.224 31.704,11.334 30.833 C 11.445 29.962,11.582 29.175,11.638 29.083 C 11.695 28.992,11.754 28.842,11.771 28.750 C 11.941 27.797,12.591 25.231,12.677 25.167 C 12.739 25.121,12.919 24.633,13.077 24.083 C 13.235 23.533,13.423 23.008,13.494 22.917 C 13.565 22.825,13.716 22.450,13.829 22.083 C 13.942 21.717,14.199 21.154,14.401 20.833 C 14.602 20.512,15.124 19.537,15.560 18.667 C 16.561 16.671,17.508 15.205,19.236 12.975 C 19.687 12.393,20.287 11.617,20.570 11.250 C 20.852 10.883,21.140 10.541,21.210 10.489 C 21.280 10.437,21.904 9.841,22.597 9.164 C 24.244 7.555,24.554 7.002,23.500 7.553 M46.037 15.001 C 43.088 15.414,37.508 17.418,36.834 18.306 C 36.788 18.368,36.412 18.642,36.000 18.915 C 34.056 20.205,30.333 23.760,30.333 24.327 C 30.333 24.388,30.198 24.583,30.033 24.760 C 29.869 24.938,29.440 25.627,29.082 26.292 C 28.723 26.956,28.371 27.500,28.298 27.500 C 28.226 27.500,28.167 27.594,28.167 27.710 C 28.167 27.825,27.987 28.257,27.767 28.670 C 27.547 29.083,27.281 29.757,27.174 30.168 C 27.068 30.580,26.875 31.147,26.747 31.428 C 26.618 31.709,26.429 32.497,26.325 33.178 C 26.222 33.859,26.050 34.597,25.944 34.817 C 25.678 35.367,25.678 41.634,25.944 42.183 C 26.050 42.403,26.264 43.258,26.418 44.083 C 26.572 44.908,26.756 45.658,26.827 45.750 C 26.897 45.842,27.118 46.429,27.318 47.056 C 27.517 47.682,27.865 48.487,28.090 48.844 C 28.316 49.201,28.500 49.526,28.500 49.565 C 28.500 49.628,29.343 50.954,29.836 51.667 C 29.931 51.804,30.138 52.113,30.296 52.352 C 31.278 53.840,32.224 54.832,32.447 54.608 C 32.568 54.488,32.189 53.547,31.907 53.264 C 31.588 52.945,30.733 51.032,30.411 49.917 C 30.252 49.367,30.062 48.878,29.988 48.830 C 28.896 48.124,28.895 36.593,29.987 35.264 C 30.069 35.164,30.259 34.655,30.411 34.132 C 30.804 32.775,32.067 30.364,32.972 29.246 C 33.048 29.152,33.253 28.852,33.428 28.579 C 33.603 28.306,33.822 27.997,33.915 27.892 C 34.007 27.787,34.383 27.345,34.750 26.910 C 35.117 26.475,35.492 26.053,35.583 25.974 C 35.675 25.894,36.162 25.455,36.665 24.998 C 37.168 24.541,37.632 24.167,37.695 24.167 C 37.758 24.167,37.909 24.071,38.030 23.953 C 43.735 18.430,56.251 17.911,63.750 22.886 C 65.544 24.076,65.696 24.188,66.512 24.909 C 66.931 25.280,67.419 25.705,67.595 25.853 C 67.772 26.001,68.142 26.406,68.417 26.752 C 68.692 27.099,69.142 27.661,69.417 28.001 C 70.328 29.127,70.578 29.490,71.250 30.666 C 71.900 31.802,72.333 32.146,72.333 31.526 C 72.333 31.045,71.881 29.664,71.623 29.359 C 71.495 29.207,71.254 28.708,71.089 28.250 C 70.923 27.792,70.695 27.304,70.581 27.167 C 70.467 27.029,70.242 26.654,70.080 26.333 C 69.919 26.012,69.733 25.712,69.668 25.667 C 69.602 25.621,69.444 25.382,69.316 25.136 C 68.595 23.748,64.486 19.500,63.865 19.500 C 63.778 19.500,63.615 19.388,63.501 19.252 C 61.149 16.418,51.935 14.175,46.037 15.001 " stroke="none" fill="#04c414" fill-rule="evenodd"></path><path id="path2" d="M45.833 0.181 C 38.980 0.837,29.848 4.183,26.314 7.333 C 26.160 7.471,25.758 7.771,25.420 8.000 C 24.105 8.893,22.292 10.404,21.797 11.020 C 21.511 11.376,21.202 11.667,21.109 11.667 C 20.911 11.667,19.683 12.964,18.427 14.500 C 17.939 15.096,17.384 15.761,17.192 15.978 C 17.000 16.195,16.798 16.514,16.744 16.686 C 16.689 16.859,16.586 17.000,16.516 17.000 C 16.445 17.000,16.301 17.188,16.197 17.417 C 15.892 18.085,16.422 17.949,17.328 17.125 C 20.233 14.484,21.461 13.559,24.583 11.658 C 26.994 10.191,30.426 8.682,33.083 7.921 C 33.633 7.764,34.162 7.570,34.258 7.491 C 34.951 6.923,41.191 6.119,44.917 6.118 C 48.613 6.118,54.707 6.915,55.409 7.492 C 55.505 7.571,56.033 7.764,56.583 7.922 C 60.184 8.957,63.467 10.556,67.308 13.148 C 67.799 13.479,68.380 13.869,68.600 14.015 C 70.378 15.190,74.796 19.716,76.215 21.816 C 76.562 22.329,76.952 22.878,77.081 23.034 C 77.211 23.190,77.429 23.527,77.565 23.784 C 77.702 24.040,78.005 24.467,78.238 24.731 C 78.471 24.996,78.753 25.465,78.864 25.773 C 78.976 26.081,79.127 26.333,79.200 26.333 C 79.273 26.333,79.333 26.416,79.333 26.516 C 79.333 26.616,79.596 27.252,79.917 27.928 C 80.237 28.604,80.500 29.198,80.500 29.247 C 80.500 29.297,80.642 29.655,80.815 30.043 C 80.989 30.432,81.341 31.387,81.597 32.167 C 81.854 32.946,82.120 33.661,82.188 33.755 C 82.257 33.850,82.436 34.637,82.587 35.505 C 82.737 36.373,82.925 37.233,83.005 37.417 C 83.633 38.864,83.635 48.989,83.007 50.417 C 82.926 50.600,82.737 51.460,82.587 52.328 C 82.436 53.196,82.250 53.984,82.172 54.078 C 82.094 54.173,81.832 54.887,81.589 55.667 C 81.347 56.446,81.050 57.271,80.929 57.500 C 80.808 57.729,80.614 58.217,80.496 58.583 C 80.379 58.950,80.191 59.400,80.078 59.583 C 79.966 59.767,79.742 60.273,79.581 60.708 C 79.420 61.144,79.231 61.500,79.162 61.500 C 79.093 61.500,78.911 61.814,78.757 62.197 C 78.604 62.581,78.314 63.096,78.114 63.343 C 77.914 63.590,77.619 64.007,77.459 64.271 C 77.181 64.728,76.779 65.339,75.813 66.769 C 75.572 67.125,75.041 67.775,74.631 68.212 C 74.221 68.650,73.631 69.319,73.318 69.700 C 73.006 70.081,72.382 70.736,71.932 71.155 C 69.058 73.830,69.209 73.660,69.698 73.663 C 69.945 73.665,70.196 73.587,70.256 73.490 C 70.317 73.392,70.527 73.238,70.725 73.147 C 71.765 72.668,74.052 71.153,74.284 70.790 C 74.357 70.676,74.835 70.309,75.346 69.975 C 76.630 69.137,81.013 64.769,81.760 63.583 C 81.934 63.308,82.155 63.032,82.253 62.970 C 82.350 62.907,82.802 62.307,83.257 61.636 C 83.711 60.966,84.135 60.378,84.198 60.330 C 84.261 60.282,84.467 59.907,84.656 59.497 C 84.845 59.086,85.308 58.266,85.685 57.675 C 86.062 57.084,86.527 56.184,86.719 55.675 C 86.910 55.166,87.116 54.712,87.176 54.667 C 87.236 54.621,87.380 54.283,87.497 53.917 C 87.613 53.550,87.842 52.950,88.005 52.583 C 88.168 52.217,88.437 51.335,88.601 50.625 C 88.766 49.915,88.961 49.333,89.034 49.333 C 89.107 49.333,89.167 49.150,89.167 48.927 C 89.167 48.703,89.229 48.481,89.305 48.434 C 89.382 48.387,89.538 47.689,89.652 46.882 C 89.766 46.076,89.926 45.291,90.007 45.137 C 90.482 44.236,90.595 36.385,90.170 33.833 C 89.701 31.017,89.471 29.904,89.327 29.760 C 89.239 29.672,89.167 29.443,89.167 29.250 C 89.167 29.057,89.102 28.829,89.023 28.742 C 88.944 28.655,88.751 28.058,88.594 27.417 C 88.437 26.775,88.208 26.025,88.086 25.750 C 87.963 25.475,87.772 24.950,87.661 24.583 C 87.550 24.217,87.330 23.692,87.172 23.417 C 87.014 23.142,86.786 22.654,86.664 22.333 C 86.437 21.731,85.178 19.481,84.986 19.333 C 84.927 19.287,84.722 18.943,84.532 18.567 C 84.341 18.191,83.937 17.554,83.633 17.150 C 83.329 16.747,82.936 16.192,82.761 15.917 C 82.585 15.642,82.248 15.225,82.012 14.991 C 81.776 14.757,81.396 14.307,81.167 13.991 C 80.471 13.032,76.987 9.631,75.833 8.785 C 75.237 8.348,74.337 7.666,73.833 7.269 C 72.856 6.501,70.397 5.052,68.750 4.276 C 68.200 4.016,67.637 3.735,67.500 3.650 C 63.336 1.084,53.260 -0.530,45.833 0.181 M349.242 21.750 C 349.242 25.050,349.264 26.424,349.291 24.802 C 349.319 23.181,349.319 20.481,349.291 18.802 C 349.264 17.124,349.242 18.450,349.242 21.750 M69.256 17.823 C 69.203 17.909,69.255 18.040,69.372 18.115 C 69.489 18.189,69.900 18.662,70.286 19.167 C 70.672 19.671,71.178 20.301,71.411 20.568 C 71.643 20.834,71.833 21.101,71.833 21.161 C 71.833 21.221,71.967 21.416,72.131 21.594 C 72.295 21.771,72.585 22.217,72.775 22.583 C 74.774 26.424,75.562 28.084,75.823 29.000 C 75.993 29.596,76.219 30.305,76.325 30.576 C 76.539 31.124,77.102 34.074,77.360 36.000 C 77.548 37.401,77.442 43.693,77.226 44.032 C 77.149 44.152,76.925 45.075,76.729 46.083 C 76.377 47.887,75.535 50.837,75.325 51.000 C 75.266 51.046,75.163 51.308,75.096 51.582 C 75.029 51.856,74.923 52.118,74.862 52.165 C 74.800 52.212,74.226 53.281,73.585 54.542 C 72.944 55.802,72.379 56.833,72.331 56.833 C 72.282 56.833,72.101 57.096,71.928 57.417 C 71.756 57.737,71.561 58.000,71.496 58.000 C 71.432 58.000,71.162 58.315,70.898 58.700 C 69.856 60.216,66.524 63.585,65.083 64.580 C 60.690 67.613,58.865 68.570,55.417 69.652 C 54.500 69.940,53.600 70.247,53.417 70.335 C 50.990 71.502,39.955 71.506,37.878 70.341 C 37.716 70.251,37.021 70.017,36.333 69.822 C 30.536 68.178,23.462 63.295,20.333 58.778 C 19.979 58.266,19.333 57.938,19.333 58.271 C 19.333 58.538,20.710 61.112,20.971 61.333 C 21.133 61.471,21.445 61.902,21.664 62.292 C 21.882 62.681,22.123 63.000,22.197 63.000 C 22.272 63.000,22.333 63.105,22.333 63.234 C 22.333 63.868,26.426 68.240,28.438 69.756 C 30.624 71.404,31.456 71.982,32.250 72.406 C 32.708 72.651,33.196 72.922,33.333 73.008 C 41.097 77.864,54.702 78.280,63.445 73.928 C 64.286 73.509,65.014 73.167,65.064 73.167 C 65.395 73.167,68.571 71.038,70.167 69.747 C 72.303 68.017,72.825 67.531,74.200 65.985 C 74.722 65.397,75.378 64.659,75.658 64.345 C 75.938 64.031,76.167 63.717,76.167 63.649 C 76.167 63.580,76.261 63.425,76.377 63.304 C 76.493 63.182,76.916 62.558,77.318 61.917 C 77.719 61.275,78.173 60.563,78.325 60.333 C 78.772 59.662,79.767 57.625,79.997 56.910 C 80.114 56.547,80.268 56.175,80.339 56.083 C 80.410 55.992,80.597 55.467,80.754 54.917 C 80.912 54.367,81.099 53.842,81.171 53.750 C 81.243 53.658,81.464 52.683,81.663 51.583 C 81.863 50.483,82.147 49.360,82.295 49.086 C 82.820 48.119,82.784 39.142,82.254 38.611 C 82.136 38.494,81.987 37.989,81.922 37.490 C 81.758 36.226,81.322 34.284,81.156 34.077 C 81.079 33.981,80.934 33.531,80.832 33.077 C 80.731 32.622,80.509 31.950,80.341 31.583 C 79.008 28.685,78.493 27.667,78.359 27.667 C 78.273 27.667,78.160 27.498,78.107 27.292 C 77.808 26.120,75.124 22.616,72.833 20.407 C 70.105 17.776,69.539 17.366,69.256 17.823 M50.833 20.597 C 50.604 20.637,49.967 20.752,49.417 20.851 C 45.891 21.487,42.075 23.812,39.583 26.843 C 38.656 27.971,38.625 28.025,38.796 28.196 C 38.915 28.315,39.452 27.984,40.526 27.130 C 49.396 20.074,61.682 23.451,66.467 34.260 C 66.677 34.734,67.277 36.937,67.452 37.877 C 67.500 38.130,67.605 38.378,67.686 38.429 C 67.893 38.556,67.874 42.955,67.667 43.083 C 67.575 43.140,67.500 43.482,67.500 43.843 C 67.500 44.204,67.425 44.500,67.333 44.500 C 67.242 44.500,67.167 44.651,67.167 44.836 C 67.167 45.253,66.637 47.220,66.494 47.333 C 66.437 47.379,66.249 47.810,66.078 48.292 C 65.907 48.773,65.720 49.167,65.662 49.167 C 65.604 49.167,65.381 49.542,65.167 50.000 C 64.952 50.458,64.716 50.833,64.642 50.833 C 64.569 50.833,64.402 51.040,64.271 51.292 C 64.141 51.544,63.465 52.313,62.769 53.000 C 61.451 54.302,61.319 54.500,61.772 54.500 C 62.313 54.500,64.928 52.638,65.840 51.603 C 66.092 51.317,66.512 50.845,66.774 50.554 C 67.716 49.506,69.333 47.105,69.333 46.753 C 69.333 46.657,69.472 46.317,69.641 45.998 C 69.810 45.678,70.001 45.192,70.064 44.917 C 70.128 44.642,70.345 43.892,70.548 43.250 C 71.097 41.510,71.098 35.989,70.548 34.250 C 70.345 33.608,70.130 32.858,70.070 32.583 C 70.010 32.308,69.870 31.933,69.760 31.750 C 69.650 31.567,69.431 31.091,69.275 30.693 C 69.001 29.996,68.131 28.534,67.608 27.892 C 65.139 24.862,64.063 23.961,61.020 22.380 C 58.242 20.935,53.549 20.114,50.833 20.597 M370.898 33.755 C 370.746 33.987,370.652 34.207,370.689 34.244 C 370.726 34.281,370.883 34.092,371.037 33.823 C 371.381 33.223,371.279 33.174,370.898 33.755 M310.616 35.089 C 310.359 35.315,310.214 35.500,310.295 35.500 C 310.376 35.500,310.618 35.313,310.833 35.083 C 311.331 34.553,311.221 34.556,310.616 35.089 M349.245 46.250 C 349.245 52.300,349.266 54.751,349.292 51.696 C 349.317 48.642,349.317 43.692,349.292 40.696 C 349.266 37.701,349.245 40.200,349.245 46.250 M370.065 36.238 C 370.015 36.369,370.002 36.650,370.036 36.863 C 370.081 37.148,370.120 37.085,370.182 36.625 C 370.269 35.978,370.223 35.825,370.065 36.238 M342.814 37.130 C 342.759 37.461,342.783 37.617,342.876 37.524 C 342.960 37.440,343.000 37.194,342.966 36.978 C 342.914 36.644,342.890 36.667,342.814 37.130 M328.864 37.251 C 328.969 37.480,329.076 37.646,329.104 37.618 C 329.205 37.517,328.956 36.833,328.817 36.833 C 328.738 36.833,328.759 37.021,328.864 37.251 M385.066 40.750 C 385.066 42.033,385.092 42.536,385.124 41.868 C 385.156 41.199,385.155 40.149,385.123 39.534 C 385.091 38.920,385.065 39.467,385.066 40.750 M320.602 42.917 C 320.739 43.529,320.834 43.663,320.831 43.236 C 320.829 43.060,320.752 42.804,320.659 42.667 C 320.536 42.484,320.520 42.552,320.602 42.917 M385.067 54.750 C 385.067 56.125,385.093 56.665,385.124 55.951 C 385.155 55.236,385.155 54.111,385.124 53.451 C 385.092 52.790,385.066 53.375,385.067 54.750 M314.480 56.464 C 314.425 56.795,314.450 56.950,314.542 56.858 C 314.626 56.774,314.667 56.528,314.633 56.311 C 314.580 55.977,314.557 56.001,314.480 56.464 M324.259 56.945 C 324.307 57.144,324.379 57.473,324.418 57.676 C 324.512 58.161,324.669 58.309,324.659 57.903 C 324.655 57.727,324.543 57.358,324.411 57.083 C 324.271 56.794,324.207 56.736,324.259 56.945 M349.447 60.750 C 349.501 61.117,349.607 61.529,349.682 61.667 C 349.761 61.810,349.777 61.633,349.720 61.250 C 349.666 60.883,349.560 60.471,349.485 60.333 C 349.406 60.190,349.390 60.367,349.447 60.750 " stroke="none" fill="#fc0404" fill-rule="evenodd"></path><path id="path3" d="M40.667 7.443 C 35.354 7.952,30.843 9.249,27.883 11.119 C 27.406 11.420,26.967 11.667,26.908 11.667 C 26.683 11.667,23.559 13.834,23.000 14.378 C 22.679 14.690,21.867 15.416,21.196 15.992 C 20.524 16.567,19.574 17.573,19.083 18.227 C 18.593 18.881,17.989 19.642,17.741 19.917 C 16.594 21.190,13.500 27.022,13.500 27.912 C 13.500 28.041,13.435 28.187,13.355 28.237 C 13.275 28.286,13.165 28.534,13.109 28.788 C 13.054 29.042,12.853 29.962,12.661 30.833 C 12.095 33.414,12.028 33.881,11.909 36.116 C 11.795 38.255,12.057 42.453,12.337 42.985 C 12.414 43.131,12.601 43.925,12.754 44.750 C 12.907 45.575,13.166 46.550,13.329 46.917 C 13.493 47.283,13.677 47.746,13.737 47.945 C 13.798 48.145,14.096 48.820,14.400 49.445 C 14.704 50.071,15.006 50.752,15.071 50.958 C 15.136 51.165,15.253 51.333,15.332 51.333 C 15.410 51.333,15.555 51.577,15.655 51.875 C 16.061 53.093,20.467 58.667,21.024 58.667 C 21.102 58.667,21.526 59.023,21.966 59.458 C 22.770 60.253,23.899 61.121,24.670 61.536 C 24.897 61.658,25.421 61.977,25.833 62.244 C 27.124 63.081,30.020 64.500,30.436 64.500 C 31.051 64.500,30.912 64.252,29.958 63.645 C 28.252 62.561,25.005 59.662,24.053 58.371 C 23.800 58.030,23.404 57.510,23.172 57.217 C 22.271 56.078,22.132 55.873,21.329 54.500 C 20.873 53.721,20.500 52.990,20.500 52.875 C 20.500 52.761,20.439 52.667,20.364 52.667 C 20.289 52.667,20.053 52.160,19.839 51.542 C 19.624 50.923,19.396 50.342,19.332 50.250 C 19.267 50.158,19.079 49.558,18.913 48.917 C 18.747 48.275,18.550 47.669,18.476 47.570 C 18.401 47.471,18.258 46.796,18.158 46.070 C 18.058 45.344,17.887 44.570,17.780 44.350 C 17.525 43.829,17.525 36.959,17.781 36.637 C 17.877 36.516,18.052 35.779,18.169 35.000 C 18.286 34.221,18.435 33.546,18.499 33.500 C 18.563 33.454,18.752 32.854,18.917 32.167 C 19.083 31.479,19.311 30.767,19.424 30.583 C 19.537 30.400,19.761 29.837,19.922 29.333 C 20.084 28.829,20.261 28.379,20.316 28.333 C 20.371 28.287,20.624 27.837,20.878 27.333 C 21.132 26.829,21.564 26.079,21.837 25.667 C 22.111 25.254,22.466 24.699,22.626 24.432 C 22.786 24.166,23.043 23.815,23.197 23.652 C 23.351 23.489,23.614 23.144,23.781 22.886 C 25.091 20.855,28.944 17.468,31.917 15.735 C 32.650 15.307,33.362 14.865,33.500 14.752 C 33.881 14.441,37.403 13.069,39.000 12.611 C 43.609 11.288,49.745 11.143,54.095 12.255 C 56.612 12.899,60.689 14.425,61.000 14.840 C 61.205 15.115,64.631 17.167,64.884 17.167 C 66.294 17.167,59.895 12.102,56.250 10.332 C 51.749 8.147,45.468 6.982,40.667 7.443 M98.541 40.375 L 98.583 69.083 110.458 69.126 L 122.333 69.169 122.333 64.751 L 122.333 60.333 116.417 60.333 L 110.500 60.333 110.500 51.917 L 110.500 43.500 114.917 43.500 L 119.333 43.500 119.333 39.000 L 119.333 34.500 114.917 34.500 L 110.500 34.500 110.500 27.502 L 110.500 20.504 116.375 20.460 L 122.250 20.417 122.294 16.042 L 122.339 11.667 110.419 11.667 L 98.499 11.667 98.541 40.375 M148.833 40.419 L 148.833 69.171 154.208 69.127 L 159.583 69.083 159.631 53.083 L 159.678 37.083 160.048 36.818 C 161.629 35.680,163.313 35.500,164.105 36.384 L 164.583 36.917 164.629 53.044 L 164.675 69.171 170.046 69.127 L 175.417 69.083 175.467 52.833 C 175.517 36.523,175.470 34.001,175.107 33.622 C 174.999 33.509,174.820 32.973,174.708 32.432 C 174.315 30.513,172.823 28.541,171.184 27.775 C 168.968 26.740,163.437 27.667,161.637 29.376 C 161.516 29.491,161.023 29.910,160.542 30.308 L 159.667 31.031 159.667 21.349 L 159.667 11.667 154.250 11.667 L 148.833 11.667 148.833 40.419 M258.333 40.419 L 258.333 69.171 263.708 69.127 L 269.083 69.083 269.125 40.375 L 269.168 11.667 263.750 11.667 L 258.333 11.667 258.333 40.419 M181.111 13.111 C 181.050 13.172,181.000 15.047,181.000 17.278 L 181.000 21.333 186.500 21.333 L 192.000 21.333 192.000 17.167 L 192.000 13.000 186.611 13.000 C 183.647 13.000,181.172 13.050,181.111 13.111 M127.447 15.609 C 127.384 15.671,127.333 18.485,127.333 21.861 L 127.333 28.000 125.583 28.000 L 123.833 28.000 123.833 31.917 L 123.833 35.833 125.583 35.833 L 127.333 35.833 127.333 47.939 C 127.333 54.745,127.400 60.308,127.486 60.647 C 127.571 60.979,127.727 61.843,127.835 62.567 C 128.028 63.870,128.281 64.667,128.500 64.667 C 128.563 64.667,128.701 64.948,128.807 65.292 C 129.913 68.880,135.751 70.338,143.875 69.056 L 144.500 68.957 144.500 64.302 L 144.500 59.646 143.292 59.769 C 141.316 59.969,140.638 59.919,139.862 59.519 C 138.453 58.792,138.508 59.305,138.504 46.792 L 138.500 35.833 141.083 35.833 L 143.667 35.833 143.667 31.917 L 143.667 28.000 141.085 28.000 L 138.504 28.000 138.460 21.792 L 138.417 15.583 132.988 15.539 C 130.003 15.515,127.509 15.547,127.447 15.609 M70.000 23.978 C 70.000 24.057,70.134 24.301,70.298 24.519 C 70.462 24.738,70.688 25.104,70.800 25.333 C 70.912 25.563,71.147 25.975,71.322 26.250 C 71.498 26.525,71.771 27.125,71.929 27.583 C 72.087 28.042,72.267 28.454,72.331 28.500 C 72.461 28.595,72.912 30.381,73.087 31.500 C 73.152 31.912,73.290 32.355,73.394 32.484 C 73.653 32.804,73.655 39.463,73.396 40.016 C 73.293 40.237,73.042 41.204,72.838 42.167 C 72.633 43.129,72.409 43.992,72.338 44.083 C 72.268 44.175,72.114 44.550,71.997 44.917 C 70.799 48.672,66.098 53.928,61.827 56.287 C 52.521 61.427,39.721 58.892,33.500 50.676 C 32.996 50.011,32.396 49.255,32.167 48.998 C 31.938 48.741,31.519 48.093,31.237 47.557 C 30.640 46.425,30.054 46.109,30.255 47.026 C 30.455 47.938,31.330 50.012,31.965 51.083 C 33.504 53.675,33.562 53.759,34.733 55.147 C 37.977 58.987,41.956 61.557,46.403 62.681 C 47.144 62.869,48.087 63.138,48.500 63.280 C 49.617 63.664,55.005 63.773,56.667 63.445 C 60.941 62.602,64.621 61.111,66.913 59.294 C 67.406 58.903,68.121 58.358,68.502 58.083 C 69.140 57.623,70.146 56.598,71.614 54.917 C 72.598 53.788,73.057 53.105,73.750 51.735 C 74.117 51.010,74.454 50.379,74.500 50.333 C 74.546 50.288,74.757 49.875,74.969 49.417 C 75.181 48.958,75.422 48.457,75.505 48.302 C 75.721 47.900,76.333 45.508,76.333 45.066 C 76.333 44.862,76.406 44.669,76.496 44.639 C 77.008 44.464,77.019 36.369,76.509 35.250 C 76.425 35.067,76.230 34.318,76.075 33.586 C 75.827 32.416,74.823 29.897,74.512 29.667 C 74.450 29.621,74.265 29.226,74.101 28.789 C 73.938 28.352,73.716 27.900,73.610 27.786 C 73.504 27.671,73.271 27.316,73.093 26.997 C 72.914 26.678,72.689 26.328,72.593 26.220 C 72.496 26.112,72.006 25.531,71.505 24.928 C 70.711 23.975,70.000 23.526,70.000 23.978 M207.500 27.433 C 205.437 27.792,203.048 28.680,202.167 29.415 C 200.287 30.983,198.754 32.994,198.323 34.458 C 198.208 34.848,198.061 35.167,197.997 35.167 C 197.132 35.167,197.138 61.201,198.004 61.833 C 198.066 61.879,198.253 62.328,198.419 62.831 C 199.622 66.487,203.547 69.196,208.330 69.673 C 214.231 70.263,219.058 68.282,221.093 64.437 C 221.342 63.968,221.646 63.396,221.770 63.168 C 221.893 62.939,222.077 62.339,222.178 61.834 C 222.279 61.330,222.445 60.767,222.546 60.583 C 222.660 60.377,222.758 58.710,222.802 56.208 L 222.874 52.167 217.520 52.167 L 212.167 52.167 212.167 55.760 C 212.167 60.630,211.857 61.512,210.156 61.494 C 208.273 61.474,208.250 61.320,208.250 48.500 C 208.250 35.653,208.270 35.522,210.206 35.505 C 211.805 35.492,212.157 36.472,212.163 40.958 L 212.167 44.167 217.523 44.167 L 222.879 44.167 222.800 40.375 C 222.754 38.117,222.649 36.448,222.541 36.250 C 222.441 36.067,222.241 35.396,222.095 34.759 C 221.950 34.122,221.774 33.560,221.706 33.509 C 221.637 33.458,221.362 33.004,221.095 32.500 C 220.828 31.996,220.564 31.546,220.507 31.500 C 220.451 31.454,220.239 31.200,220.036 30.935 C 218.056 28.358,211.962 26.655,207.500 27.433 M237.590 27.508 C 235.450 27.842,233.229 28.738,232.342 29.624 C 232.090 29.877,231.684 30.218,231.441 30.384 C 230.812 30.810,229.683 32.392,229.387 33.262 C 229.248 33.668,229.075 34.000,229.001 34.000 C 228.927 34.000,228.774 34.394,228.661 34.875 C 228.549 35.356,228.407 35.825,228.346 35.917 C 227.945 36.525,227.569 38.595,227.470 40.750 L 227.417 41.917 229.333 42.021 C 230.387 42.078,232.688 42.181,234.445 42.248 L 237.640 42.371 237.721 41.060 C 237.954 37.294,238.442 36.167,239.838 36.167 C 241.280 36.167,241.665 37.056,241.784 40.667 L 241.874 43.417 240.645 43.982 C 239.970 44.293,238.817 44.802,238.083 45.114 C 235.274 46.306,233.389 47.375,232.411 48.334 C 232.224 48.517,231.999 48.667,231.911 48.668 C 231.668 48.670,229.748 50.513,229.395 51.083 C 229.225 51.358,229.028 51.658,228.957 51.750 C 228.060 52.912,227.419 54.254,227.246 55.333 C 227.180 55.746,227.041 56.137,226.938 56.202 C 226.679 56.366,226.677 62.190,226.937 62.516 C 227.039 62.645,227.217 63.163,227.332 63.667 C 227.521 64.497,227.954 65.415,228.410 65.954 C 228.506 66.066,228.733 66.356,228.917 66.597 C 230.703 68.949,232.257 69.703,235.333 69.708 C 237.857 69.712,239.659 68.915,240.796 67.292 C 241.627 66.107,241.969 65.517,242.187 64.898 L 242.415 64.250 242.471 64.832 C 242.502 65.152,242.585 65.452,242.656 65.499 C 242.727 65.545,242.853 66.371,242.934 67.333 L 243.083 69.083 247.981 69.128 L 252.879 69.172 252.772 68.386 C 252.712 67.954,252.621 66.847,252.569 65.925 C 252.517 65.004,252.406 64.100,252.322 63.917 C 252.237 63.729,252.145 57.686,252.112 50.083 C 252.054 36.851,251.989 35.201,251.507 34.583 C 251.435 34.492,251.284 34.117,251.170 33.750 C 249.693 28.990,244.218 26.474,237.590 27.508 M181.167 48.583 L 181.167 69.167 186.583 69.167 L 192.000 69.167 192.000 48.583 L 192.000 28.000 186.583 28.000 L 181.167 28.000 181.167 48.583 M44.355 32.346 C 42.645 32.682,40.949 33.963,40.740 35.076 C 40.679 35.403,40.562 35.711,40.481 35.762 C 40.270 35.892,40.289 48.000,40.500 48.000 C 40.592 48.000,40.669 48.169,40.673 48.375 C 40.689 49.411,42.481 50.833,43.770 50.833 L 44.167 50.833 44.167 47.175 L 44.167 43.518 50.808 43.467 C 57.893 43.413,58.000 43.400,58.000 42.596 C 58.000 42.397,58.082 42.152,58.181 42.052 C 58.312 41.922,58.312 41.840,58.181 41.759 C 58.082 41.697,58.000 41.476,58.000 41.266 C 58.000 40.337,57.972 40.333,50.779 40.333 L 44.167 40.333 44.167 38.429 C 44.167 35.699,44.663 35.329,48.500 35.202 C 49.737 35.161,50.844 35.052,50.958 34.960 C 51.231 34.741,51.238 32.638,50.967 32.367 C 50.731 32.131,45.531 32.115,44.355 32.346 M10.565 38.000 C 10.565 39.237,10.592 39.744,10.624 39.125 C 10.656 38.506,10.656 37.494,10.624 36.875 C 10.592 36.256,10.565 36.762,10.565 38.000 M45.500 50.006 L 45.500 51.512 51.593 51.464 L 57.686 51.417 58.006 51.000 C 58.464 50.403,58.428 49.484,57.925 48.941 L 57.516 48.500 51.508 48.500 L 45.500 48.500 45.500 50.006 M241.405 60.223 C 239.968 61.969,238.178 62.147,237.396 60.622 C 237.244 60.326,237.052 60.039,236.970 59.986 C 236.558 59.719,236.560 54.952,236.971 54.677 C 237.049 54.626,237.197 54.334,237.302 54.030 C 237.784 52.621,239.251 50.946,241.130 49.659 L 241.750 49.234 241.794 54.465 L 241.838 59.696 241.405 60.223 " stroke="none" fill="#040404" fill-rule="evenodd"></path><path id="path4" d="" stroke="none" fill="#443414" fill-rule="evenodd"></path></g></svg>